<mxfile host="app.diagrams.net" modified="2023-10-16T16:02:40.994Z" agent="Mozilla/5.0 (X11; Linux x86_64; rv:109.0) Gecko/20100101 Firefox/114.0" etag="0AO4iz3vTPxP89B5B8Rq" version="22.0.4" type="github">
  <diagram name="PÃ¡gina-1" id="L7usoo-jQDJ8gfc6-Ze3">
    <mxGraphModel dx="1999" dy="1816" grid="1" gridSize="10" guides="1" tooltips="1" connect="1" arrows="1" fold="1" page="1" pageScale="1" pageWidth="827" pageHeight="1169" math="0" shadow="0">
      <root>
        <mxCell id="0" />
        <mxCell id="1" parent="0" />
        <mxCell id="6mJi9_nkyHlrTt3k_ZdW-28" style="edgeStyle=orthogonalEdgeStyle;rounded=0;orthogonalLoop=1;jettySize=auto;html=1;endArrow=none;endFill=0;" edge="1" parent="1" source="6mJi9_nkyHlrTt3k_ZdW-1" target="6mJi9_nkyHlrTt3k_ZdW-27">
          <mxGeometry relative="1" as="geometry" />
        </mxCell>
        <mxCell id="6mJi9_nkyHlrTt3k_ZdW-1" value="Arbitro" style="rounded=0;whiteSpace=wrap;html=1;fillColor=#dae8fc;strokeColor=#6c8ebf;" vertex="1" parent="1">
          <mxGeometry x="570" y="460" width="120" height="60" as="geometry" />
        </mxCell>
        <mxCell id="6mJi9_nkyHlrTt3k_ZdW-25" style="edgeStyle=orthogonalEdgeStyle;rounded=0;orthogonalLoop=1;jettySize=auto;html=1;endArrow=none;endFill=0;" edge="1" parent="1" source="6mJi9_nkyHlrTt3k_ZdW-2" target="6mJi9_nkyHlrTt3k_ZdW-24">
          <mxGeometry relative="1" as="geometry" />
        </mxCell>
        <mxCell id="6mJi9_nkyHlrTt3k_ZdW-2" value="Jugador" style="rounded=0;whiteSpace=wrap;html=1;fillColor=#dae8fc;strokeColor=#6c8ebf;" vertex="1" parent="1">
          <mxGeometry x="280" y="450" width="120" height="60" as="geometry" />
        </mxCell>
        <mxCell id="6mJi9_nkyHlrTt3k_ZdW-31" style="edgeStyle=orthogonalEdgeStyle;rounded=0;orthogonalLoop=1;jettySize=auto;html=1;endArrow=none;endFill=0;" edge="1" parent="1" source="6mJi9_nkyHlrTt3k_ZdW-3" target="6mJi9_nkyHlrTt3k_ZdW-30">
          <mxGeometry relative="1" as="geometry" />
        </mxCell>
        <mxCell id="6mJi9_nkyHlrTt3k_ZdW-3" value="Sala" style="rounded=0;whiteSpace=wrap;html=1;fillColor=#dae8fc;strokeColor=#6c8ebf;" vertex="1" parent="1">
          <mxGeometry x="-80" y="850" width="120" height="60" as="geometry" />
        </mxCell>
        <mxCell id="6mJi9_nkyHlrTt3k_ZdW-4" value="Hotel " style="rounded=0;whiteSpace=wrap;html=1;fillColor=#dae8fc;strokeColor=#6c8ebf;" vertex="1" parent="1">
          <mxGeometry x="-80" y="150" width="120" height="60" as="geometry" />
        </mxCell>
        <mxCell id="6mJi9_nkyHlrTt3k_ZdW-5" value="Pais" style="rounded=0;whiteSpace=wrap;html=1;fillColor=#dae8fc;strokeColor=#6c8ebf;" vertex="1" parent="1">
          <mxGeometry x="850" y="350" width="120" height="60" as="geometry" />
        </mxCell>
        <mxCell id="6mJi9_nkyHlrTt3k_ZdW-9" style="edgeStyle=orthogonalEdgeStyle;rounded=0;orthogonalLoop=1;jettySize=auto;html=1;endArrow=none;endFill=0;" edge="1" parent="1" source="6mJi9_nkyHlrTt3k_ZdW-6" target="6mJi9_nkyHlrTt3k_ZdW-8">
          <mxGeometry relative="1" as="geometry" />
        </mxCell>
        <mxCell id="6mJi9_nkyHlrTt3k_ZdW-19" style="edgeStyle=orthogonalEdgeStyle;rounded=0;orthogonalLoop=1;jettySize=auto;html=1;entryX=1;entryY=0.5;entryDx=0;entryDy=0;endArrow=none;endFill=0;startArrow=classic;startFill=1;" edge="1" parent="1" source="6mJi9_nkyHlrTt3k_ZdW-6" target="6mJi9_nkyHlrTt3k_ZdW-17">
          <mxGeometry relative="1" as="geometry" />
        </mxCell>
        <mxCell id="6mJi9_nkyHlrTt3k_ZdW-6" value="participante" style="rounded=0;whiteSpace=wrap;html=1;fillColor=#dae8fc;strokeColor=#6c8ebf;" vertex="1" parent="1">
          <mxGeometry x="414" y="150" width="120" height="60" as="geometry" />
        </mxCell>
        <mxCell id="6mJi9_nkyHlrTt3k_ZdW-12" style="rounded=0;orthogonalLoop=1;jettySize=auto;html=1;endArrow=none;endFill=0;" edge="1" parent="1" source="6mJi9_nkyHlrTt3k_ZdW-7" target="6mJi9_nkyHlrTt3k_ZdW-2">
          <mxGeometry relative="1" as="geometry" />
        </mxCell>
        <mxCell id="6mJi9_nkyHlrTt3k_ZdW-13" style="rounded=0;orthogonalLoop=1;jettySize=auto;html=1;endArrow=none;endFill=0;" edge="1" parent="1" source="6mJi9_nkyHlrTt3k_ZdW-7" target="6mJi9_nkyHlrTt3k_ZdW-1">
          <mxGeometry relative="1" as="geometry" />
        </mxCell>
        <mxCell id="6mJi9_nkyHlrTt3k_ZdW-7" value="" style="triangle;whiteSpace=wrap;html=1;rotation=90;fillColor=#e1d5e7;strokeColor=#9673a6;" vertex="1" parent="1">
          <mxGeometry x="456" y="260" width="36" height="60" as="geometry" />
        </mxCell>
        <mxCell id="6mJi9_nkyHlrTt3k_ZdW-10" style="edgeStyle=orthogonalEdgeStyle;rounded=0;orthogonalLoop=1;jettySize=auto;html=1;endArrow=none;endFill=0;" edge="1" parent="1" source="6mJi9_nkyHlrTt3k_ZdW-8" target="6mJi9_nkyHlrTt3k_ZdW-7">
          <mxGeometry relative="1" as="geometry" />
        </mxCell>
        <mxCell id="6mJi9_nkyHlrTt3k_ZdW-8" value="" style="ellipse;whiteSpace=wrap;html=1;aspect=fixed;fillColor=#e1d5e7;strokeColor=#9673a6;" vertex="1" parent="1">
          <mxGeometry x="459" y="220" width="30" height="30" as="geometry" />
        </mxCell>
        <mxCell id="6mJi9_nkyHlrTt3k_ZdW-11" value="" style="verticalLabelPosition=bottom;verticalAlign=top;html=1;shape=mxgraph.basic.arc;startAngle=0.6868028434922566;endAngle=0.9984085036175459;rotation=-125;" vertex="1" parent="1">
          <mxGeometry x="421" y="209.99999999999997" width="106" height="100" as="geometry" />
        </mxCell>
        <mxCell id="6mJi9_nkyHlrTt3k_ZdW-34" style="edgeStyle=orthogonalEdgeStyle;rounded=0;orthogonalLoop=1;jettySize=auto;html=1;" edge="1" parent="1" source="6mJi9_nkyHlrTt3k_ZdW-15" target="6mJi9_nkyHlrTt3k_ZdW-33">
          <mxGeometry relative="1" as="geometry" />
        </mxCell>
        <mxCell id="6mJi9_nkyHlrTt3k_ZdW-15" value="partida" style="rounded=0;whiteSpace=wrap;html=1;fillColor=#dae8fc;strokeColor=#6c8ebf;" vertex="1" parent="1">
          <mxGeometry x="280" y="1060" width="120" height="60" as="geometry" />
        </mxCell>
        <mxCell id="6mJi9_nkyHlrTt3k_ZdW-20" style="edgeStyle=orthogonalEdgeStyle;rounded=0;orthogonalLoop=1;jettySize=auto;html=1;endArrow=classic;endFill=1;startArrow=none;startFill=0;" edge="1" parent="1" source="6mJi9_nkyHlrTt3k_ZdW-17" target="6mJi9_nkyHlrTt3k_ZdW-4">
          <mxGeometry relative="1" as="geometry" />
        </mxCell>
        <mxCell id="6mJi9_nkyHlrTt3k_ZdW-17" value="se aloja" style="rhombus;whiteSpace=wrap;html=1;fillColor=#e1d5e7;strokeColor=#9673a6;" vertex="1" parent="1">
          <mxGeometry x="180" y="140" width="80" height="80" as="geometry" />
        </mxCell>
        <mxCell id="6mJi9_nkyHlrTt3k_ZdW-22" style="edgeStyle=orthogonalEdgeStyle;rounded=0;orthogonalLoop=1;jettySize=auto;html=1;entryX=0.5;entryY=1;entryDx=0;entryDy=0;endArrow=none;endFill=0;" edge="1" parent="1" source="6mJi9_nkyHlrTt3k_ZdW-21" target="6mJi9_nkyHlrTt3k_ZdW-4">
          <mxGeometry relative="1" as="geometry" />
        </mxCell>
        <mxCell id="6mJi9_nkyHlrTt3k_ZdW-23" style="edgeStyle=orthogonalEdgeStyle;rounded=0;orthogonalLoop=1;jettySize=auto;html=1;entryX=0.5;entryY=0;entryDx=0;entryDy=0;endArrow=none;endFill=0;" edge="1" parent="1" source="6mJi9_nkyHlrTt3k_ZdW-21" target="6mJi9_nkyHlrTt3k_ZdW-3">
          <mxGeometry relative="1" as="geometry" />
        </mxCell>
        <mxCell id="6mJi9_nkyHlrTt3k_ZdW-21" value="dispone" style="rhombus;whiteSpace=wrap;html=1;fillColor=#e1d5e7;strokeColor=#9673a6;" vertex="1" parent="1">
          <mxGeometry x="-60" y="390" width="80" height="80" as="geometry" />
        </mxCell>
        <mxCell id="6mJi9_nkyHlrTt3k_ZdW-26" style="edgeStyle=orthogonalEdgeStyle;rounded=0;orthogonalLoop=1;jettySize=auto;html=1;endArrow=none;endFill=0;" edge="1" parent="1" source="6mJi9_nkyHlrTt3k_ZdW-24" target="6mJi9_nkyHlrTt3k_ZdW-15">
          <mxGeometry relative="1" as="geometry">
            <mxPoint x="330" y="950" as="targetPoint" />
          </mxGeometry>
        </mxCell>
        <mxCell id="6mJi9_nkyHlrTt3k_ZdW-24" value="juega" style="rhombus;whiteSpace=wrap;html=1;fillColor=#e1d5e7;strokeColor=#9673a6;" vertex="1" parent="1">
          <mxGeometry x="300" y="760" width="80" height="80" as="geometry" />
        </mxCell>
        <mxCell id="6mJi9_nkyHlrTt3k_ZdW-29" style="edgeStyle=orthogonalEdgeStyle;rounded=0;orthogonalLoop=1;jettySize=auto;html=1;entryX=1;entryY=0.5;entryDx=0;entryDy=0;endArrow=classic;endFill=1;startArrow=none;startFill=0;" edge="1" parent="1" source="6mJi9_nkyHlrTt3k_ZdW-27" target="6mJi9_nkyHlrTt3k_ZdW-15">
          <mxGeometry relative="1" as="geometry" />
        </mxCell>
        <mxCell id="6mJi9_nkyHlrTt3k_ZdW-37" value="Text" style="edgeLabel;html=1;align=center;verticalAlign=middle;resizable=0;points=[];" vertex="1" connectable="0" parent="6mJi9_nkyHlrTt3k_ZdW-29">
          <mxGeometry x="0.1905" y="-2" relative="1" as="geometry">
            <mxPoint x="-3" y="-48" as="offset" />
          </mxGeometry>
        </mxCell>
        <mxCell id="6mJi9_nkyHlrTt3k_ZdW-27" value="arbitra" style="rhombus;whiteSpace=wrap;html=1;fillColor=#e1d5e7;strokeColor=#9673a6;" vertex="1" parent="1">
          <mxGeometry x="590" y="1050" width="80" height="80" as="geometry" />
        </mxCell>
        <mxCell id="6mJi9_nkyHlrTt3k_ZdW-32" style="edgeStyle=orthogonalEdgeStyle;rounded=0;orthogonalLoop=1;jettySize=auto;html=1;entryX=0;entryY=0.5;entryDx=0;entryDy=0;endArrow=classic;endFill=1;startArrow=none;startFill=0;" edge="1" parent="1" source="6mJi9_nkyHlrTt3k_ZdW-30" target="6mJi9_nkyHlrTt3k_ZdW-15">
          <mxGeometry relative="1" as="geometry">
            <mxPoint x="270" y="1090" as="targetPoint" />
          </mxGeometry>
        </mxCell>
        <mxCell id="6mJi9_nkyHlrTt3k_ZdW-30" value="celebra" style="rhombus;whiteSpace=wrap;html=1;fillColor=#e1d5e7;strokeColor=#9673a6;" vertex="1" parent="1">
          <mxGeometry x="-60" y="1050" width="80" height="80" as="geometry" />
        </mxCell>
        <mxCell id="6mJi9_nkyHlrTt3k_ZdW-36" style="edgeStyle=orthogonalEdgeStyle;rounded=0;orthogonalLoop=1;jettySize=auto;html=1;" edge="1" parent="1" source="6mJi9_nkyHlrTt3k_ZdW-33" target="6mJi9_nkyHlrTt3k_ZdW-35">
          <mxGeometry relative="1" as="geometry" />
        </mxCell>
        <mxCell id="6mJi9_nkyHlrTt3k_ZdW-33" value="consta" style="rhombus;whiteSpace=wrap;html=1;fillColor=#e1d5e7;strokeColor=#9673a6;" vertex="1" parent="1">
          <mxGeometry x="300" y="1330" width="80" height="80" as="geometry" />
        </mxCell>
        <mxCell id="6mJi9_nkyHlrTt3k_ZdW-35" value="movimiento" style="shape=ext;margin=3;double=1;whiteSpace=wrap;html=1;align=center;fillColor=#dae8fc;strokeColor=#6c8ebf;" vertex="1" parent="1">
          <mxGeometry x="290" y="1540" width="100" height="40" as="geometry" />
        </mxCell>
        <mxCell id="6mJi9_nkyHlrTt3k_ZdW-39" style="edgeStyle=orthogonalEdgeStyle;rounded=0;orthogonalLoop=1;jettySize=auto;html=1;" edge="1" parent="1" source="6mJi9_nkyHlrTt3k_ZdW-38" target="6mJi9_nkyHlrTt3k_ZdW-6">
          <mxGeometry relative="1" as="geometry" />
        </mxCell>
        <mxCell id="6mJi9_nkyHlrTt3k_ZdW-40" style="edgeStyle=orthogonalEdgeStyle;rounded=0;orthogonalLoop=1;jettySize=auto;html=1;endArrow=none;endFill=0;" edge="1" parent="1" source="6mJi9_nkyHlrTt3k_ZdW-38" target="6mJi9_nkyHlrTt3k_ZdW-5">
          <mxGeometry relative="1" as="geometry" />
        </mxCell>
        <mxCell id="6mJi9_nkyHlrTt3k_ZdW-38" value="envia" style="rhombus;whiteSpace=wrap;html=1;fillColor=#e1d5e7;strokeColor=#9673a6;" vertex="1" parent="1">
          <mxGeometry x="870" y="140" width="80" height="80" as="geometry" />
        </mxCell>
        <mxCell id="6mJi9_nkyHlrTt3k_ZdW-42" style="rounded=0;orthogonalLoop=1;jettySize=auto;html=1;entryX=0.945;entryY=0.988;entryDx=0;entryDy=0;entryPerimeter=0;" edge="1" parent="1" source="6mJi9_nkyHlrTt3k_ZdW-41" target="6mJi9_nkyHlrTt3k_ZdW-5">
          <mxGeometry relative="1" as="geometry" />
        </mxCell>
        <mxCell id="6mJi9_nkyHlrTt3k_ZdW-44" style="rounded=0;orthogonalLoop=1;jettySize=auto;html=1;entryX=0;entryY=1;entryDx=0;entryDy=0;" edge="1" parent="1" source="6mJi9_nkyHlrTt3k_ZdW-41" target="6mJi9_nkyHlrTt3k_ZdW-5">
          <mxGeometry relative="1" as="geometry">
            <mxPoint x="830" y="390" as="targetPoint" />
          </mxGeometry>
        </mxCell>
        <mxCell id="6mJi9_nkyHlrTt3k_ZdW-41" value="representa" style="rhombus;whiteSpace=wrap;html=1;fillColor=#e1d5e7;strokeColor=#9673a6;" vertex="1" parent="1">
          <mxGeometry x="880" y="430" width="80" height="80" as="geometry" />
        </mxCell>
      </root>
    </mxGraphModel>
  </diagram>
</mxfile>
